{"title":"Not Easily Broken.2009.SWESUB.DVDRip.XviD.AC3.(5.1).-Zen_Bud","uid":5560624,"size":1471162146,"categoryP":"video","categoryS":"movies","magnet":"?xt=urn:btih:44400cb2c16631a04bcf8586252b310d910e9459&amp;dn=Not+Easily+Broken.2009.SWESUB.DVDRip.XviD.AC3.%285.1%29.-Zen_Bud&amp;tr=udp%3A%2F%2Ftracker.openbittorrent.com%3A80&amp;tr=udp%3A%2F%2Fopen.demonii.com%3A1337&amp;tr=udp%3A%2F%2Ftracker.coppersurfer.tk%3A6969&amp;tr=udp%3A%2F%2Fexodus.desync.com%3A6969","seeders":3,"leechers":0,"uploader":"Zen_Bud","files":-1,"time":1273825964,"description":"General\nComplete name                    : Not Easily Broken.avi\nFormat                           : AVI\nFile size                        : 1.37 GiB\nDuration                         : 1h 35mn\nOverall bit rate                 : 2 053 Kbps\n\nVideo\nID                               : 0\nFormat                           : MPEG-4 Visual\nCodec ID/Hint                    : XviD\nDuration                         : 1h 35mn\nBit rate                         : 1 594 Kbps\nWidth                            : 720 pixels\nHeight                           : 550 pixels\nDisplay aspect ratio             : 1.862\nResolution                       : 8 bits\nColorimetry                      : 4:2:0\nScan type                        : Progressive\nBits/(Pixel*Frame)               : 0.161\nStream size                      : 1.06 GiB (78%)\nWriting library                  : XviD 1.1.2 (UTC 2006-11-01)\n\nAudio\nID                               : 1\nFormat                           : AC-3\nDuration                         : 1h 35mn\nBit rate                         : 448 Kbps\nChannel(s)                       : 6 channels\nChannel positions                : Front: L C R, Side: L R, LFE\nSampling rate                    : 48.0 KHz\nStream size                      : 306 MiB (22%)\n\n\n","torrent":{"xt":"urn:btih:44400cb2c16631a04bcf8586252b310d910e9459","amp;dn":"Not+Easily+Broken.2009.SWESUB.DVDRip.XviD.AC3.%285.1%29.-Zen_Bud","amp;tr":["udp%3A%2F%2Ftracker.openbittorrent.com%3A80","udp%3A%2F%2Fopen.demonii.com%3A1337","udp%3A%2F%2Ftracker.coppersurfer.tk%3A6969","udp%3A%2F%2Fexodus.desync.com%3A6969"],"infoHash":"44400cb2c16631a04bcf8586252b310d910e9459","infoHashBuffer":{"type":"Buffer","data":[68,64,12,178,193,102,49,160,75,207,133,134,37,43,49,13,145,14,148,89]},"announce":[],"urlList":[]}}